<svg xmlns="http://www.w3.org/2000/svg" width="18" height="18" viewBox="0 0 18 18">
  <path fill="#96A4B0" fill-rule="evenodd" d="M101.615836,50 C101.533724,50 101.454546,49.9853374 101.378299,49.9560117 C101.302052,49.9266861 101.234604,49.8826982 101.175953,49.8240469 C101.05865,49.7067443 101,49.5659832 101,49.4017595 C101,49.2375358 101.05865,49.0967748 101.175953,48.9794721 L109.217009,40.9384164 L101.29912,33.0381232 C101.181818,32.9208205 101.123167,32.777127 101.123167,32.6070381 C101.123167,32.4369493 101.181818,32.2932557 101.29912,32.1759531 C101.416423,32.0586504 101.560116,32 101.730205,32 C101.900294,32 102.043988,32.0586504 102.16129,32.1759531 L110.483871,40.516129 C110.601174,40.6334317 110.659824,40.7741927 110.659824,40.9384164 C110.659824,41.1026401 110.601174,41.2434012 110.483871,41.3607038 L102.038123,49.8240469 C101.979472,49.8826982 101.912024,49.9266861 101.835777,49.9560117 C101.75953,49.9853374 101.686217,50 101.615836,50 Z" transform="translate(-96 -32)"/>
</svg>
