<svg xmlns="http://www.w3.org/2000/svg" width="18" height="18" viewBox="0 0 18 18">
  <path fill="#96A4B0" fill-rule="evenodd" d="M140.061584,32 C140.143695,32 140.219941,32.0146626 140.290323,32.0439883 C140.360704,32.0733139 140.42522,32.1173018 140.483871,32.1759531 C140.601174,32.2932557 140.659824,32.4369493 140.659824,32.6070381 C140.659824,32.777127 140.601174,32.9208205 140.483871,33.0381232 L132.460411,41.0615836 L140.378299,48.9794721 C140.495602,49.0967748 140.554252,49.2375358 140.554252,49.4017595 C140.554252,49.5659832 140.495602,49.7067443 140.378299,49.8240469 C140.260996,49.9413496 140.117303,50 139.947214,50 C139.777125,50 139.633432,49.9413496 139.516129,49.8240469 L131.175953,41.483871 C131.05865,41.3665683 131,41.2258073 131,41.0615836 C131,40.8973599 131.05865,40.7565988 131.175953,40.6392962 L139.639296,32.1759531 C139.697948,32.1173018 139.765396,32.0733139 139.841642,32.0439883 C139.917889,32.0146626 139.991202,32 140.061584,32 Z" transform="translate(-128 -32)"/>
</svg>
