<svg xmlns="http://www.w3.org/2000/svg" width="20" height="20" viewBox="0 0 20 20">
  <path fill="#D0011B" fill-rule="evenodd" d="M10,8.04713808 C10,8.27160608 9.92143738,8.462401 9.76430977,8.61952862 L8.61952862,9.76430977 C8.462401,9.92143738 8.27160608,10 8.04713808,10 C7.82267,10 7.63187508,9.92143738 7.47474748,9.76430977 L5,7.28956229 L2.52525252,9.76430977 C2.36812492,9.92143738 2.17732997,10 1.95286195,10 C1.72839394,10 1.53759899,9.92143738 1.38047138,9.76430977 L0.235690235,8.61952862 C0.0785626262,8.462401 0,8.27160608 0,8.04713808 C0,7.82267 0.0785626262,7.63187508 0.235690235,7.47474748 L2.71043771,5 L0.235690235,2.52525252 C0.0785626262,2.36812492 0,2.17732997 0,1.95286195 C0,1.72839394 0.0785626262,1.53759899 0.235690235,1.38047138 L1.38047138,0.235690235 C1.53759899,0.0785626262 1.72839394,0 1.95286195,0 C2.17732997,0 2.36812492,0.0785626262 2.52525252,0.235690235 L5,2.71043771 L7.47474748,0.235690235 C7.63187508,0.0785626262 7.82267,0 8.04713808,0 C8.27160608,0 8.462401,0.0785626262 8.61952862,0.235690235 L9.76430977,1.38047138 C9.92143738,1.53759899 10,1.72839394 10,1.95286195 C10,2.17732997 9.92143738,2.36812492 9.76430977,2.52525252 L7.28956229,5 L9.76430977,7.47474748 C9.92143738,7.63187508 10,7.82267 10,8.04713808 L10,8.04713808 L10,8.04713808 Z" transform="translate(5 5)"/>
</svg>
