<svg xmlns="http://www.w3.org/2000/svg" width="18" height="18" viewBox="0 0 18 18">
  <path fill="#FFFFFF" fill-rule="evenodd" d="M100.615836,50 C100.533724,50 100.454546,49.9853374 100.378299,49.9560117 C100.302052,49.9266861 100.234604,49.8826982 100.175953,49.8240469 C100.05865,49.7067443 100,49.5659832 100,49.4017595 C100,49.2375358 100.05865,49.0967748 100.175953,48.9794721 L108.217009,40.9384164 L100.29912,33.0381232 C100.181818,32.9208205 100.123167,32.777127 100.123167,32.6070381 C100.123167,32.4369493 100.181818,32.2932557 100.29912,32.1759531 C100.416423,32.0586504 100.560116,32 100.730205,32 C100.900294,32 101.043988,32.0586504 101.16129,32.1759531 L109.483871,40.516129 C109.601174,40.6334317 109.659824,40.7741927 109.659824,40.9384164 C109.659824,41.1026401 109.601174,41.2434012 109.483871,41.3607038 L101.038123,49.8240469 C100.979472,49.8826982 100.912024,49.9266861 100.835777,49.9560117 C100.75953,49.9853374 100.686217,50 100.615836,50 Z" transform="translate(-96 -32)"/>
</svg>
