<svg xmlns="http://www.w3.org/2000/svg" width="18" height="18" viewBox="0 0 18 18">
  <path fill="#FFFFFF" fill-rule="evenodd" d="M141.061584,32 C141.143695,32 141.219941,32.0146626 141.290323,32.0439883 C141.360704,32.0733139 141.42522,32.1173018 141.483871,32.1759531 C141.601174,32.2932557 141.659824,32.4369493 141.659824,32.6070381 C141.659824,32.777127 141.601174,32.9208205 141.483871,33.0381232 L133.460411,41.0615836 L141.378299,48.9794721 C141.495602,49.0967748 141.554252,49.2375358 141.554252,49.4017595 C141.554252,49.5659832 141.495602,49.7067443 141.378299,49.8240469 C141.260996,49.9413496 141.117303,50 140.947214,50 C140.777125,50 140.633432,49.9413496 140.516129,49.8240469 L132.175953,41.483871 C132.05865,41.3665683 132,41.2258073 132,41.0615836 C132,40.8973599 132.05865,40.7565988 132.175953,40.6392962 L140.639296,32.1759531 C140.697948,32.1173018 140.765396,32.0733139 140.841642,32.0439883 C140.917889,32.0146626 140.991202,32 141.061584,32 Z" transform="translate(-128 -32)"/>
</svg>
